#!OML:ASF G:\ViconDB\ViconDB\414\test\team2\shane.ASF
:FULLY-SPECIFIED
:DEGREES
152
root 8.13953 16.6179 29.6713 -10.3467 -1.4857 -5.97177
lowerback 9.45088 4.27578 5.49795
upperback 3.55764 6.18825 0.79555
thorax -1.07741 3.13009 -2.84605
lowerneck -12.8746 -7.22684 -8.96569
upperneck 32.8517 -12.4621 12.2233
head 14.9956 -4.94093 4.50957
rclavicle 5.31252e-014 -1.19271e-014
rhumerus -46.7263 26.7106 -100.571
rradius 111.248
rwrist 34.9751
rhand -49.3215 -20.5498
rfingers 7.12502
rthumb -21.9378 -49.3259
lclavicle -2.25248e-014 1.47101e-014
lhumerus -77.0206 -20.6774 89.9401
lradius 78.2716
lwrist -14.6499
lhand -46.2425 5.07255
lfingers 7.12502
lthumb -18.9789 34.1666
rfemur 26.2431 -7.90199 15.33
rtibia 49.8119
rfoot -1.07853 -7.16184
rtoes -7.10344
lfemur -21.5079 18.7343 -13.6102
ltibia 39.358
lfoot -2.21319 -23.0345
ltoes 0.441244
153
root 8.1341 16.478 30.1287 -10.8113 -1.22345 -5.92243
lowerback 9.79043 3.9269 5.09217
upperback 3.54464 5.70805 0.706803
thorax -1.35104 2.87997 -2.70483
lowerneck -12.9749 -7.02938 -8.7958
upperneck 32.4748 -12.225 12.391
head 14.806 -4.80623 4.57364
rclavicle 5.31252e-014 -1.19271e-014
rhumerus -46.7263 26.7106 -100.571
rradius 111.248
rwrist 34.9751
rhand -49.3215 -20.5498
rfingers 7.12502
rthumb -21.9378 -49.3259
lclavicle -9.2e-014 -1.90833e-014
lhumerus -75.7025 -19.8694 90.3204
lradius 79.1655
lwrist -14.6962
lhand -46.3666 4.69032
lfingers 7.12502
lthumb -19.0982 33.7726
rfemur 24.5359 -8.54158 14.5481
rtibia 53.9388
rfoot -2.57031 -7.26364
rtoes -7.67775
lfemur -19.7345 17.9223 -13.4569
ltibia 40.1153
lfoot -8.98945 -24.4961
ltoes 5.50873
154
root 8.12606 16.341 30.5817 -11.1823 -0.976812 -5.6509
lowerback 10.0118 3.65704 4.30654
upperback 3.52921 5.28829 0.685245
thorax -1.59465 2.65945 -2.27478
lowerneck -12.7762 -6.86096 -8.90792
upperneck 31.7681 -11.9868 12.7378
head 14.4359 -4.70291 4.75341
rclavicle -2.07481e-014 4.77083e-015
rhumerus -53.7132 29.2501 -102.838
rradius 100.275
rwrist 32.7256
rhand -48.303 -17.1907
rfingers 7.12502
rthumb -20.9595 -46.0783
lclavicle -2.07481e-014 4.77083e-015
lhumerus -74.1066 -19.1727 91.041
lradius 79.5786
lwrist -15.6385
lhand -46.99 4.83837
lfingers 7.12502
lthumb -19.6976 33.8604
rfemur 22.7031 -9.13898 13.5871
rtibia 57.7313
rfoot -3.654 -7.31488
rtoes -7.97143
lfemur -18.0064 16.2245 -13.4796
ltibia 41.4756
lfoot -14.5311 -22.2547
ltoes 3.65782
155
root 8.13387 16.2415 31.0327 -11.4884 -0.778788 -5.71978
lowerback 10.8976 4.47085 8.93443
upperback 3.44113 6.85189 -1.47071
thorax -1.21724 3.50408 -7.28964
lowerneck -11.919 -8.22443 -9.07659
upperneck 29.9422 -14.6777 15.398
head 14.1636 -5.66137 5.34247
rclavicle -5.69767e-014 1.27222e-014
rhumerus -53.7132 29.2501 -102.838
rradius 100.275
rwrist 32.7256
rhand -48.303 -17.1907
rfingers 7.12502
rthumb -20.9595 -46.0783
lclavicle -5.69767e-014 1.27222e-014
lhumerus -71.7869 -25.4776 91.8776
lradius 79.7712
lwrist -15.385
lhand -47.6796 4.45682
lfingers 7.12502
lthumb -20.3606 33.4095
rfemur 20.6796 -9.56577 13.0939
rtibia 61.1645
rfoot -4.99137 -7.23402
rtoes -7.07496
lfemur -16.6366 14.5076 -13.3681
ltibia 43.3062
lfoot -17.565 -19.6358
ltoes 4.16885
156
root 8.15124 16.1817 31.4969 -12.0099 1.28463 -5.43001
lowerback 10.3596 2.3777 3.71721
upperback 3.74184 3.54077 0.49863
thorax -1.70765 1.78696 -1.97482
lowerneck -12.5263 -6.46742 -8.89436
upperneck 30.2894 -11.316 12.9989
head 13.6351 -4.42693 4.90816
rclavicle -6.18842e-014 3.18055e-015
rhumerus -53.7132 29.2501 -102.838
rradius 100.275
rwrist 32.7256
rhand -48.303 -17.1907
rfingers 7.12502
rthumb -20.9595 -46.0783
lclavicle -6.18842e-014 3.18055e-015
lhumerus -69.6773 -18.2615 92.9133
lradius 79.7232
lwrist -16.7783
lhand -48.4469 4.5972
lfingers 7.12502
lthumb -21.0977 33.4694
rfemur 19.0399 -11.6206 12.0402
rtibia 64.2878
rfoot -6.14696 -7.15222
rtoes -7.61911
lfemur -15.9862 12.1031 -14.0436
ltibia 45.3708
lfoot -19.6272 -17.9543
ltoes 3.7714
157
root 8.15162 16.1318 31.9053 -11.9382 1.4727 -5.07531
lowerback 10.8483 2.07839 3.16312
upperback 3.60995 3.10461 0.332634
thorax -2.15981 1.55698 -1.81587
lowerneck -12.3117 -6.23239 -8.69901
upperneck 29.5348 -10.9445 13.0336
head 13.1961 -4.26521 4.91756
rclavicle -1.54431e-014 4.77083e-015
rhumerus -55.6441 28.9886 -103.485
rradius 90.0452
rwrist 34.3415
rhand -46.8853 -14.7336
rfingers 7.12502
rthumb -19.597 -43.7659
lclavicle -1.54431e-014 4.77083e-015
lhumerus -66.9186 -18.2955 93.929
lradius 79.2027
lwrist -17.2891
lhand -49.2358 4.69673
lfingers 7.12502
lthumb -21.8554 33.4825
rfemur 16.1718 -11.6631 11.4724
rtibia 67.2767
rfoot -7.35585 -6.67585
rtoes -6.53707
lfemur -15.4502 10.8453 -14.4518
ltibia 47.469
lfoot -21.6533 -16.134
ltoes 2.43401
158
root 8.13165 16.0649 32.2838 -12.1938 0.609426 -4.71108
lowerback 11.7428 2.22451 2.4633
upperback 3.71523 3.24695 0.340257
thorax -2.57207 1.61948 -1.47326
lowerneck -12.4111 -6.11009 -8.7585
upperneck 28.8976 -10.6949 13.1396
head 12.924 -4.1607 4.97994
rclavicle 1.22998e-015 7.95139e-016
rhumerus -55.0739 28.5738 -103.188
rradius 85.3291
rwrist 35.0475
rhand -46.0925 -13.8243
rfingers 7.12502
rthumb -18.8346 -42.9325
lclavicle 1.22998e-015 7.95139e-016
lhumerus -63.2241 -18.9245 95.0111
lradius 78.1115
lwrist -17.7015
lhand -49.912 4.79114
lfingers 7.12502
lthumb -22.5046 33.4997
rfemur 13.2801 -10.8091 11.1074
rtibia 70.0986
rfoot -8.7989 -6.0516
rtoes -6.49718
lfemur -14.217 11.0446 -14.4169
ltibia 49.3492
lfoot -24.1508 -15.1633
ltoes 1.9402
159
root 8.08673 16.0068 32.6471 -12.2491 -0.221316 -4.3579
lowerback 12.2728 2.45573 1.4446
upperback 3.97423 3.44403 0.451164
thorax -2.65084 1.71551 -0.833509
lowerneck -12.9541 -6.07463 -9.07698
upperneck 28.2908 -10.5424 13.4308
head 12.8082 -4.08617 5.14054
rclavicle -1.6027e-014 -1.90833e-014
rhumerus -53.705 28.1771 -102.397
rradius 79.8834
rwrist 36.2669
rhand -44.534 -13.5107
rfingers 7.12502
rthumb -17.3352 -42.7576
lclavicle -1.6027e-014 -1.90833e-014
lhumerus -58.6485 -20.2 95.8225
lradius 76.342
lwrist -18.2583
lhand -50.8861 3.74905
lfingers 7.12502
lthumb -23.4394 32.3414
rfemur 10.0184 -10.1324 11.105
rtibia 72.688
rfoot -10.2359 -5.85401
rtoes -6.3273
lfemur -13.1499 11.8566 -14.1553
ltibia 50.8461
lfoot -26.3109 -15.0922
ltoes 1.66913
160
root 8.06314 15.9663 33.0364 -12.016 1.43882 -5.03558
lowerback 11.5651 1.62057 1.55485
upperback 4.34504 2.34216 0.697496
thorax -1.90979 1.1763 -0.454133
lowerneck -13.3578 -5.97037 -9.38605
upperneck 27.6305 -10.2475 13.5934
head 12.6094 -3.9679 5.27099
rclavicle -5.29016e-014 3.18055e-015
rhumerus -53.705 28.1771 -102.397
rradius 79.8834
rwrist 36.2669
rhand -44.534 -13.5107
rfingers 7.12502
rthumb -17.3352 -42.7576
lclavicle -5.29016e-014 3.18055e-015
lhumerus -53.9129 -21.5392 96.4316
lradius 74.9777
lwrist -16.9834
lhand -51.1124 3.48046
lfingers 7.12502
lthumb -23.6564 32.0449
rfemur 6.94862 -12.027 12.0602
rtibia 74.7982
rfoot -11.4976 -6.26122
rtoes -6.03611
lfemur -12.7625 11.345 -13.1014
ltibia 51.8308
lfoot -27.8592 -16.4053
ltoes 1.49469
